<?xml version="1.0" encoding="UTF-8" standalone="no"?>
<!-- Created with Inkscape (http://www.inkscape.org/) -->

<svg
   xmlns:osb="http://www.openswatchbook.org/uri/2009/osb"
   xmlns:dc="http://purl.org/dc/elements/1.1/"
   xmlns:cc="http://creativecommons.org/ns#"
   xmlns:rdf="http://www.w3.org/1999/02/22-rdf-syntax-ns#"
   xmlns:svg="http://www.w3.org/2000/svg"
   xmlns="http://www.w3.org/2000/svg"
   xmlns:sodipodi="http://sodipodi.sourceforge.net/DTD/sodipodi-0.dtd"
   xmlns:inkscape="http://www.inkscape.org/namespaces/inkscape"
   width="1203"
   height="983"
   id="svg2"
   version="1.1"
   inkscape:version="0.48.4 r9939"
   inkscape:export-filename="C:\Users\chris\Desktop\Arnaud\gitlog_octopus-2.png"
   inkscape:export-xdpi="54.91272"
   inkscape:export-ydpi="54.91272"
   sodipodi:docname="gitlog_octopus-2a.svg">
  <defs
     id="defs4">
    <marker
       inkscape:stockid="Arrow1Mend"
       orient="auto"
       refY="0"
       refX="0"
       id="Arrow1Mend"
       style="overflow:visible">
      <path
         id="path4070"
         d="M 0,0 5,-5 -12.5,0 5,5 0,0 z"
         style="fill-rule:evenodd;stroke:#000000;stroke-width:1pt"
         transform="matrix(-0.4,0,0,-0.4,-4,0)"
         inkscape:connector-curvature="0" />
    </marker>
    <marker
       inkscape:stockid="TriangleOutL"
       orient="auto"
       refY="0"
       refX="0"
       id="TriangleOutL"
       style="overflow:visible">
      <path
         id="path4203"
         d="m 5.77,0 -8.65,5 0,-10 8.65,5 z"
         style="fill-rule:evenodd;stroke:#000000;stroke-width:1pt"
         transform="scale(0.8,0.8)"
         inkscape:connector-curvature="0" />
    </marker>
    <marker
       inkscape:stockid="EmptyTriangleInL"
       orient="auto"
       refY="0"
       refX="0"
       id="EmptyTriangleInL"
       style="overflow:visible">
      <path
         id="path4212"
         d="m 5.77,0 -8.65,5 0,-10 8.65,5 z"
         style="fill:#ffffff;fill-rule:evenodd;stroke:#000000;stroke-width:1pt"
         transform="matrix(-0.8,0,0,-0.8,4.8,0)"
         inkscape:connector-curvature="0" />
    </marker>
    <marker
       inkscape:stockid="EmptyTriangleOutL"
       orient="auto"
       refY="0"
       refX="0"
       id="EmptyTriangleOutL"
       style="overflow:visible">
      <path
         id="path4221"
         d="m 5.77,0 -8.65,5 0,-10 8.65,5 z"
         style="fill:#ffffff;fill-rule:evenodd;stroke:#000000;stroke-width:1pt"
         transform="matrix(0.8,0,0,0.8,-4.8,0)"
         inkscape:connector-curvature="0" />
    </marker>
    <linearGradient
       id="linearGradient9318">
      <stop
         style="stop-color:#ff0000;stop-opacity:0.24705882;"
         offset="0"
         id="stop9328" />
      <stop
         id="stop9334"
         offset="0.5"
         style="stop-color:#ff0000;stop-opacity:0.12156863;" />
      <stop
         style="stop-color:#ff0000;stop-opacity:0;"
         offset="1"
         id="stop9322" />
    </linearGradient>
    <linearGradient
       id="linearGradient9310">
      <stop
         style="stop-color:#ff0000;stop-opacity:1;"
         offset="0"
         id="stop9312" />
      <stop
         style="stop-color:#ff0000;stop-opacity:0;"
         offset="1"
         id="stop9314" />
    </linearGradient>
    <linearGradient
       id="linearGradient7685"
       osb:paint="solid">
      <stop
         style="stop-color:#ff993b;stop-opacity:1;"
         offset="0"
         id="stop7687" />
    </linearGradient>
    <linearGradient
       id="linearGradient6243">
      <stop
         style="stop-color:#ff993b;stop-opacity:1;"
         offset="0"
         id="stop6245" />
      <stop
         style="stop-color:#ff993b;stop-opacity:0;"
         offset="1"
         id="stop6247" />
    </linearGradient>
    <linearGradient
       id="linearGradient6187"
       osb:paint="solid">
      <stop
         style="stop-color:#ff973b;stop-opacity:1;"
         offset="0"
         id="stop6189" />
    </linearGradient>
    <linearGradient
       id="linearGradient6171">
      <stop
         style="stop-color:#e60000;stop-opacity:1;"
         offset="0"
         id="stop6173" />
      <stop
         style="stop-color:#000000;stop-opacity:0;"
         offset="1"
         id="stop6175" />
    </linearGradient>
    <marker
       inkscape:stockid="Arrow2Lend"
       orient="auto"
       refY="0"
       refX="0"
       id="Arrow2Lend"
       style="overflow:visible">
      <path
         id="path4082"
         style="fill-rule:evenodd;stroke-width:0.625;stroke-linejoin:round"
         d="M 8.7185878,4.0337352 -2.2072895,0.01601326 8.7185884,-4.0017078 c -1.7454984,2.3720609 -1.7354408,5.6174519 -6e-7,8.035443 z"
         transform="matrix(-1.1,0,0,-1.1,-1.1,0)"
         inkscape:connector-curvature="0" />
    </marker>
    <inkscape:perspective
       sodipodi:type="inkscape:persp3d"
       inkscape:vp_x="84.285714 : 417.60966 : 1"
       inkscape:vp_y="0 : 1000 : 0"
       inkscape:vp_z="744.09448 : 526.18109 : 1"
       inkscape:persp3d-origin="372.04724 : 350.78739 : 1"
       id="perspective3009" />
    <marker
       inkscape:stockid="Arrow1Mend"
       orient="auto"
       refY="0"
       refX="0"
       id="Arrow1Mend-8"
       style="overflow:visible">
      <path
         inkscape:connector-curvature="0"
         id="path4070-5"
         d="M 0,0 5,-5 -12.5,0 5,5 0,0 z"
         style="fill-rule:evenodd;stroke:#000000;stroke-width:1pt"
         transform="matrix(-0.4,0,0,-0.4,-4,0)" />
    </marker>
    <marker
       inkscape:stockid="Arrow1Mend"
       orient="auto"
       refY="0"
       refX="0"
       id="Arrow1Mend-5"
       style="overflow:visible">
      <path
         inkscape:connector-curvature="0"
         id="path4070-2"
         d="M 0,0 5,-5 -12.5,0 5,5 0,0 z"
         style="fill-rule:evenodd;stroke:#000000;stroke-width:1pt"
         transform="matrix(-0.4,0,0,-0.4,-4,0)" />
    </marker>
    <marker
       inkscape:stockid="Arrow1Mend"
       orient="auto"
       refY="0"
       refX="0"
       id="Arrow1Mend-2"
       style="overflow:visible">
      <path
         inkscape:connector-curvature="0"
         id="path4070-8"
         d="M 0,0 5,-5 -12.5,0 5,5 0,0 z"
         style="fill-rule:evenodd;stroke:#000000;stroke-width:1pt"
         transform="matrix(-0.4,0,0,-0.4,-4,0)" />
    </marker>
    <marker
       inkscape:stockid="Arrow1Mend"
       orient="auto"
       refY="0"
       refX="0"
       id="Arrow1Mend-87"
       style="overflow:visible">
      <path
         inkscape:connector-curvature="0"
         id="path4070-4"
         d="M 0,0 5,-5 -12.5,0 5,5 0,0 z"
         style="fill-rule:evenodd;stroke:#000000;stroke-width:1pt"
         transform="matrix(-0.4,0,0,-0.4,-4,0)" />
    </marker>
    <marker
       inkscape:stockid="Arrow1Mend"
       orient="auto"
       refY="0"
       refX="0"
       id="Arrow1Mend-0"
       style="overflow:visible">
      <path
         inkscape:connector-curvature="0"
         id="path4070-59"
         d="M 0,0 5,-5 -12.5,0 5,5 0,0 z"
         style="fill-rule:evenodd;stroke:#000000;stroke-width:1pt"
         transform="matrix(-0.4,0,0,-0.4,-4,0)" />
    </marker>
    <marker
       inkscape:stockid="Arrow1Mend"
       orient="auto"
       refY="0"
       refX="0"
       id="Arrow1Mend-7"
       style="overflow:visible">
      <path
         id="path4070-40"
         d="M 0,0 5,-5 -12.5,0 5,5 0,0 z"
         style="fill-rule:evenodd;stroke:#000000;stroke-width:1pt"
         transform="matrix(-0.4,0,0,-0.4,-4,0)"
         inkscape:connector-curvature="0" />
    </marker>
    <marker
       inkscape:stockid="Arrow1Mend"
       orient="auto"
       refY="0"
       refX="0"
       id="Arrow1Mend-1"
       style="overflow:visible">
      <path
         id="path4070-7"
         d="M 0,0 5,-5 -12.5,0 5,5 0,0 z"
         style="fill-rule:evenodd;stroke:#000000;stroke-width:1pt"
         transform="matrix(-0.4,0,0,-0.4,-4,0)"
         inkscape:connector-curvature="0" />
    </marker>
    <marker
       inkscape:stockid="Arrow1Mend"
       orient="auto"
       refY="0"
       refX="0"
       id="Arrow1Mend-09"
       style="overflow:visible">
      <path
         id="path4070-48"
         d="M 0,0 5,-5 -12.5,0 5,5 0,0 z"
         style="fill-rule:evenodd;stroke:#000000;stroke-width:1pt"
         transform="matrix(-0.4,0,0,-0.4,-4,0)"
         inkscape:connector-curvature="0" />
    </marker>
  </defs>
  <sodipodi:namedview
     id="base"
     pagecolor="#ffffff"
     bordercolor="#666666"
     borderopacity="1.0"
     inkscape:pageopacity="0.0"
     inkscape:pageshadow="2"
     inkscape:zoom="0.70181406"
     inkscape:cx="302.2355"
     inkscape:cy="431.72526"
     inkscape:document-units="px"
     inkscape:current-layer="layer1"
     showgrid="true"
     inkscape:window-width="1440"
     inkscape:window-height="837"
     inkscape:window-x="-8"
     inkscape:window-y="-8"
     inkscape:window-maximized="1"
     inkscape:object-nodes="true"
     fit-margin-top="0"
     fit-margin-left="0"
     fit-margin-right="0"
     fit-margin-bottom="0"
     showguides="true"
     inkscape:guide-bbox="true">
    <inkscape:grid
       type="xygrid"
       id="grid3269"
       empspacing="5"
       visible="true"
       enabled="true"
       snapvisiblegridlinesonly="true"
       originx="201.5px"
       originy="-118.5px" />
  </sodipodi:namedview>
  <metadata
     id="metadata7">
    <rdf:RDF>
      <cc:Work
         rdf:about="">
        <dc:format>image/svg+xml</dc:format>
        <dc:type
           rdf:resource="http://purl.org/dc/dcmitype/StillImage" />
        <dc:title></dc:title>
      </cc:Work>
    </rdf:RDF>
  </metadata>
  <g
     inkscape:label="Layer 1"
     inkscape:groupmode="layer"
     id="layer1"
     transform="translate(201.5,49.13784)">
    <rect
       style="fill:#f0f0f0;fill-opacity:1;fill-rule:nonzero;stroke:#0000ff;stroke-width:3;stroke-linecap:round;stroke-miterlimit:4;stroke-opacity:1;stroke-dasharray:9, 3;stroke-dashoffset:0"
       id="rect11933"
       width="1200"
       height="980"
       x="-200"
       y="-47.63784"
       inkscape:export-filename="C:\Users\chris\Desktop\Arnaud\gitlog_octopus-1.png"
       inkscape:export-xdpi="54.92128"
       inkscape:export-ydpi="54.92128" />
    <path
       inkscape:connector-curvature="0"
       id="path5967"
       d="m 192.75,494.36218 0,-112.00002"
       style="fill:none;stroke:#ff0000;stroke-width:4.83045959;stroke-linecap:butt;stroke-linejoin:miter;stroke-miterlimit:4;stroke-opacity:1;stroke-dasharray:none;marker-end:url(#Arrow1Mend)" />
    <path
       style="fill:none;stroke:#ff0000;stroke-width:4.87339783;stroke-linecap:butt;stroke-linejoin:miter;stroke-miterlimit:4;stroke-opacity:1;stroke-dasharray:none;marker-end:url(#Arrow1Mend)"
       d="m 192.75,676.36218 0,-114.00002"
       id="path5969"
       inkscape:connector-curvature="0" />
    <path
       style="fill:none;stroke:#ff00f3;stroke-width:4.72455645;stroke-linecap:butt;stroke-linejoin:miter;stroke-miterlimit:4;stroke-opacity:1;stroke-dasharray:none;marker-end:url(#Arrow1Mend)"
       d="m 430,322.36218 c 0,0 -74,-214.00002 -368,-252.00002"
       id="path5971"
       inkscape:connector-curvature="0"
       sodipodi:nodetypes="cc" />
    <path
       style="fill:#f0f0f0;fill-opacity:1;stroke:#ffd355;stroke-width:4.83045959;stroke-linecap:butt;stroke-linejoin:miter;stroke-miterlimit:4;stroke-opacity:1;stroke-dasharray:none;marker-end:url(#Arrow1Mend)"
       d="m 432.82519,494.36218 0,-112.00002"
       id="path6157"
       inkscape:connector-curvature="0" />
    <path
       inkscape:connector-curvature="0"
       id="path6159"
       d="m 432.82519,916.36217 0,-176.00001"
       style="fill:#ffd355;fill-opacity:1;stroke:#ffd355;stroke-width:4.92700005;stroke-linecap:butt;stroke-linejoin:miter;stroke-miterlimit:4;stroke-opacity:1;stroke-dasharray:19.70800018, 19.70800018;stroke-dashoffset:30.54739983;marker-end:url(#Arrow1Mend)"
       sodipodi:nodetypes="cc" />
    <path
       sodipodi:nodetypes="cc"
       style="fill:#ff0000;fill-opacity:1;stroke:#ff0000;stroke-width:4.8863492;stroke-linecap:butt;stroke-linejoin:miter;stroke-miterlimit:4;stroke-opacity:1;stroke-dasharray:19.5453968, 19.5453968;stroke-dashoffset:0;marker-end:url(#Arrow1Mend)"
       d="m 192.75,892.36217 0,-150.00001"
       id="path6161"
       inkscape:connector-curvature="0" />
    <text
       xml:space="preserve"
       style="font-size:56px;font-style:normal;font-variant:normal;font-weight:bold;font-stretch:normal;text-align:start;line-height:125%;letter-spacing:0px;word-spacing:0px;writing-mode:lr-tb;text-anchor:start;fill:#000000;fill-opacity:1;stroke:none;font-family:Arial;-inkscape-font-specification:Arial Bold"
       x="-74"
       y="22.362183"
       id="text6163"
       sodipodi:linespacing="125%"><tspan
         sodipodi:role="line"
         id="tspan17353"
         x="-74"
         y="22.362183">octopus</tspan></text>
    <path
       sodipodi:type="arc"
       style="fill:#ff0000;fill-opacity:1;stroke:#000000;stroke-width:6.66666651;stroke-miterlimit:4;stroke-opacity:1;stroke-dasharray:none"
       id="path6207"
       sodipodi:cx="180"
       sodipodi:cy="152.36218"
       sodipodi:rx="40"
       sodipodi:ry="40"
       d="m 220,152.36218 c 0,22.09139 -17.90861,40 -40,40 -22.09139,0 -40,-17.90861 -40,-40 0,-22.09139 17.90861,-40 40,-40 22.09139,0 40,17.90861 40,40 z"
       transform="matrix(0.75,0,0,0.75,57.75,408.09055)" />
    <path
       transform="matrix(0.75,0,0,0.75,57.75,590.09055)"
       d="m 220,152.36218 c 0,22.09139 -17.90861,40 -40,40 -22.09139,0 -40,-17.90861 -40,-40 0,-22.09139 17.90861,-40 40,-40 22.09139,0 40,17.90861 40,40 z"
       sodipodi:ry="40"
       sodipodi:rx="40"
       sodipodi:cy="152.36218"
       sodipodi:cx="180"
       id="path6215"
       style="fill:#ff0000;fill-opacity:1;stroke:#000000;stroke-width:6.66666651;stroke-miterlimit:4;stroke-opacity:1;stroke-dasharray:none"
       sodipodi:type="arc" />
    <path
       transform="matrix(0.75,0,0,0.75,297.82519,410.09055)"
       d="m 220,152.36218 c 0,22.09139 -17.90861,40 -40,40 -22.09139,0 -40,-17.90861 -40,-40 0,-22.09139 17.90861,-40 40,-40 22.09139,0 40,17.90861 40,40 z"
       sodipodi:ry="40"
       sodipodi:rx="40"
       sodipodi:cy="152.36218"
       sodipodi:cx="180"
       id="path6233"
       style="fill:#ffd355;fill-opacity:1;stroke:#000000;stroke-width:6.66666651;stroke-miterlimit:4;stroke-opacity:1;stroke-dasharray:none"
       sodipodi:type="arc" />
    <path
       style="fill:#f0f0f0;fill-opacity:1;stroke:#ffd355;stroke-width:4.83045959;stroke-linecap:butt;stroke-linejoin:miter;stroke-miterlimit:4;stroke-opacity:1;stroke-dasharray:none;marker-end:url(#Arrow1Mend)"
       d="m 432.82519,676.36216 0,-112.00001"
       id="path6157-6"
       inkscape:connector-curvature="0" />
    <text
       xml:space="preserve"
       style="font-size:56px;font-style:normal;font-variant:normal;font-weight:bold;font-stretch:normal;text-align:start;line-height:125%;letter-spacing:0px;word-spacing:0px;writing-mode:lr-tb;text-anchor:start;fill:#000000;fill-opacity:1;stroke:none;font-family:Arial;-inkscape-font-specification:Arial Bold"
       x="-20"
       y="292.36215"
       id="text6163-5"
       sodipodi:linespacing="125%"><tspan
         sodipodi:role="line"
         id="tspan17376"
         x="-20"
         y="292.36215">master</tspan></text>
    <path
       style="fill:#f0f0f0;fill-opacity:1;stroke:#ffd355;stroke-width:4.83045959;stroke-linecap:butt;stroke-linejoin:miter;stroke-miterlimit:4;stroke-opacity:1;stroke-dasharray:none;marker-end:url(#Arrow1Mend)"
       d="m 681,494.36214 0,-112.00002"
       id="path6157-3"
       inkscape:connector-curvature="0" />
    <path
       transform="matrix(0.75,0,0,0.75,546,410.09051)"
       d="m 220,152.36218 c 0,22.09139 -17.90861,40 -40,40 -22.09139,0 -40,-17.90861 -40,-40 0,-22.09139 17.90861,-40 40,-40 22.09139,0 40,17.90861 40,40 z"
       sodipodi:ry="40"
       sodipodi:rx="40"
       sodipodi:cy="152.36218"
       sodipodi:cx="180"
       id="path6233-12"
       style="fill:#ffd355;fill-opacity:1;stroke:#000000;stroke-width:6.66666651;stroke-miterlimit:4;stroke-opacity:1;stroke-dasharray:none"
       sodipodi:type="arc" />
    <path
       style="fill:none;stroke:#ff00f3;stroke-width:4.72455645;stroke-linecap:butt;stroke-linejoin:miter;stroke-miterlimit:4;stroke-opacity:1;stroke-dasharray:none;marker-end:url(#Arrow1Mend)"
       d="m 666,318.36216 c 0,0 -130,-248 -602,-248"
       id="path5971-8"
       inkscape:connector-curvature="0"
       sodipodi:nodetypes="cc" />
    <path
       transform="matrix(0.75,0,0,0.75,297.82519,588.09052)"
       d="m 220,152.36218 c 0,22.09139 -17.90861,40 -40,40 -22.09139,0 -40,-17.90861 -40,-40 0,-22.09139 17.90861,-40 40,-40 22.09139,0 40,17.90861 40,40 z"
       sodipodi:ry="40"
       sodipodi:rx="40"
       sodipodi:cy="152.36218"
       sodipodi:cx="180"
       id="path6233-1"
       style="fill:#ffd355;fill-opacity:1;stroke:#000000;stroke-width:6.66666651;stroke-miterlimit:4;stroke-opacity:1;stroke-dasharray:none"
       sodipodi:type="arc" />
    <path
       sodipodi:type="arc"
       style="fill:#ffd355;fill-opacity:1;stroke:#000000;stroke-width:6.66666651;stroke-miterlimit:4;stroke-opacity:1;stroke-dasharray:none"
       id="path6223"
       sodipodi:cx="180"
       sodipodi:cy="152.36218"
       sodipodi:rx="40"
       sodipodi:ry="40"
       d="m 220,152.36218 c 0,22.09139 -17.90861,40 -40,40 -22.09139,0 -40,-17.90861 -40,-40 0,-22.09139 17.90861,-40 40,-40 22.09139,0 40,17.90861 40,40 z"
       transform="matrix(0.75,0,0,0.75,297.82519,228.09055)" />
    <path
       inkscape:connector-curvature="0"
       id="path6159-0"
       d="m 681,914.36216 0,-176"
       style="fill:#ffd355;fill-opacity:1;stroke:#ffd355;stroke-width:4.92700005;stroke-linecap:butt;stroke-linejoin:miter;stroke-miterlimit:4;stroke-opacity:1;stroke-dasharray:19.70800018, 19.70800018;stroke-dashoffset:30.54739983;marker-end:url(#Arrow1Mend)"
       sodipodi:nodetypes="cc" />
    <text
       xml:space="preserve"
       style="font-size:56px;font-style:normal;font-variant:normal;font-weight:bold;font-stretch:normal;text-align:start;line-height:125%;letter-spacing:0px;word-spacing:0px;writing-mode:lr-tb;text-anchor:start;fill:#000000;fill-opacity:1;stroke:none;font-family:Arial;-inkscape-font-specification:Arial Bold"
       x="304"
       y="292.36218"
       id="text6167"
       sodipodi:linespacing="125%"><tspan
         sodipodi:role="line"
         id="tspan17378"
         x="304"
         y="292.36218">feature A</tspan></text>
    <path
       style="fill:#f0f0f0;fill-opacity:1;stroke:#ffd355;stroke-width:4.83045959;stroke-linecap:butt;stroke-linejoin:miter;stroke-miterlimit:4;stroke-opacity:1;stroke-dasharray:none;marker-end:url(#Arrow1Mend)"
       d="m 681,676.36215 0,-112"
       id="path6157-6-9"
       inkscape:connector-curvature="0" />
    <path
       transform="matrix(0.75,0,0,0.75,546,588.09052)"
       d="m 220,152.36218 c 0,22.09139 -17.90861,40 -40,40 -22.09139,0 -40,-17.90861 -40,-40 0,-22.09139 17.90861,-40 40,-40 22.09139,0 40,17.90861 40,40 z"
       sodipodi:ry="40"
       sodipodi:rx="40"
       sodipodi:cy="152.36218"
       sodipodi:cx="180"
       id="path6233-1-5"
       style="fill:#ffd355;fill-opacity:1;stroke:#000000;stroke-width:6.66666651;stroke-miterlimit:4;stroke-opacity:1;stroke-dasharray:none"
       sodipodi:type="arc" />
    <path
       transform="matrix(0.75,0,0,0.75,-105,-49.909477)"
       d="m 220,152.36218 c 0,22.09139 -17.90861,40 -40,40 -22.09139,0 -40,-17.90861 -40,-40 0,-22.09139 17.90861,-40 40,-40 22.09139,0 40,17.90861 40,40 z"
       sodipodi:ry="40"
       sodipodi:rx="40"
       sodipodi:cy="152.36218"
       sodipodi:cx="180"
       id="path6197-8"
       style="fill:#ff00f3;fill-opacity:1;stroke:#000000;stroke-width:6.66666651;stroke-miterlimit:4;stroke-opacity:1;stroke-dasharray:none"
       sodipodi:type="arc" />
    <path
       style="fill:none;stroke:#ff00f3;stroke-width:4.72455645;stroke-linecap:butt;stroke-linejoin:miter;stroke-miterlimit:4;stroke-opacity:1;stroke-dasharray:none;marker-end:url(#Arrow1Mend)"
       d="m 192,312.36216 c 0,0 30,-220 -130,-240"
       id="path5971-4"
       inkscape:connector-curvature="0"
       sodipodi:nodetypes="cc" />
    <path
       transform="matrix(0.75,0,0,0.75,57.75,228.09055)"
       d="m 220,152.36218 c 0,22.09139 -17.90861,40 -40,40 -22.09139,0 -40,-17.90861 -40,-40 0,-22.09139 17.90861,-40 40,-40 22.09139,0 40,17.90861 40,40 z"
       sodipodi:ry="40"
       sodipodi:rx="40"
       sodipodi:cy="152.36218"
       sodipodi:cx="180"
       id="path6197"
       style="fill:#ff0000;fill-opacity:1;stroke:#000000;stroke-width:6.66666651;stroke-miterlimit:4;stroke-opacity:1;stroke-dasharray:none"
       sodipodi:type="arc" />
    <path
       style="fill:#f0f0f0;fill-opacity:1;stroke:#ffd355;stroke-width:4.83045959;stroke-linecap:butt;stroke-linejoin:miter;stroke-miterlimit:4;stroke-opacity:1;stroke-dasharray:none;marker-end:url(#Arrow1Mend)"
       d="m 680,312.36216 0,-98.00002"
       id="path6157-3-9"
       inkscape:connector-curvature="0"
       sodipodi:nodetypes="cc" />
    <text
       xml:space="preserve"
       style="font-size:56px;font-style:normal;font-variant:normal;font-weight:bold;font-stretch:normal;text-align:start;line-height:125%;letter-spacing:0px;word-spacing:0px;writing-mode:lr-tb;text-anchor:start;fill:#000000;fill-opacity:1;stroke:none;font-family:Arial;-inkscape-font-specification:Arial Bold"
       x="568"
       y="132.36215"
       id="text6167-2-8"
       sodipodi:linespacing="125%"><tspan
         sodipodi:role="line"
         id="tspan17401-2"
         x="568"
         y="132.36215">feature B</tspan></text>
    <path
       sodipodi:type="arc"
       style="fill:#ff0000;fill-opacity:1;fill-rule:nonzero;stroke:#00ff00;stroke-width:10.66666698;stroke-miterlimit:4;stroke-opacity:1;stroke-dasharray:none;stroke-dashoffset:0"
       id="path3271-5-4"
       sodipodi:cx="180"
       sodipodi:cy="152.36218"
       sodipodi:rx="40"
       sodipodi:ry="40"
       d="m 220,152.36218 c 0,22.09139 -17.90861,40 -40,40 -22.09139,0 -40,-17.90861 -40,-40 0,-22.09139 17.90861,-40 40,-40 22.09139,0 40,17.90861 40,40 z"
       transform="matrix(0.75,0,0,0.75,545,62.090523)" />
    <path
       sodipodi:type="arc"
       style="fill:#ffd355;fill-opacity:1;stroke:#000000;stroke-width:6.66666651;stroke-miterlimit:4;stroke-opacity:1;stroke-dasharray:none"
       id="path6223-2"
       sodipodi:cx="180"
       sodipodi:cy="152.36218"
       sodipodi:rx="40"
       sodipodi:ry="40"
       d="m 220,152.36218 c 0,22.09139 -17.90861,40 -40,40 -22.09139,0 -40,-17.90861 -40,-40 0,-22.09139 17.90861,-40 40,-40 22.09139,0 40,17.90861 40,40 z"
       transform="matrix(0.75,0,0,0.75,546,228.09052)" />
  </g>
</svg>
